<svg xmlns="http://www.w3.org/2000/svg" viewBox="0 0 800 450" role="img" aria-labelledby="title desc"><title id="title">CI/CD project placeholder light</title><desc id="desc">Pipeline stages for lint, test, build, and deploy.</desc><defs><linearGradient id="bg" x1="0" y1="0" x2="1" y2="1"><stop offset="0%" stop-color="#f2f7fd"/><stop offset="100%" stop-color="#dce8fa"/></linearGradient></defs><rect width="800" height="450" rx="28" fill="url(#bg)"/><g transform="translate(76 148)"><path d="M0 0 H124 L148 60 L124 120 H0 L24 60 Z" fill="#36b6c5"/><path d="M136 0 H260 L284 60 L260 120 H136 L160 60 Z" fill="#4e94da"/><path d="M272 0 H396 L420 60 L396 120 H272 L296 60 Z" fill="#6f7fe0"/><path d="M408 0 H532 L556 60 L532 120 H408 L432 60 Z" fill="#3cc6ae"/></g><g fill="#2a5b95" opacity="0.22"><circle cx="150" cy="208" r="10"/><circle cx="286" cy="208" r="10"/><circle cx="422" cy="208" r="10"/><circle cx="558" cy="208" r="10"/></g></svg>