<svg xmlns="http://www.w3.org/2000/svg" viewBox="0 0 800 450" role="img" aria-labelledby="title desc">
  <title id="title">Docker project placeholder</title>
  <desc id="desc">Container blocks and distributed workload lanes.</desc>
  <defs>
    <linearGradient id="bg" x1="0" y1="0" x2="1" y2="1">
      <stop offset="0%" stop-color="#09192a"/>
      <stop offset="100%" stop-color="#0f4f74"/>
    </linearGradient>
  </defs>
  <rect width="800" height="450" rx="28" fill="url(#bg)"/>
  <g transform="translate(148 152)">
    <rect x="0" y="56" width="72" height="40" rx="8" fill="#85e8ff"/>
    <rect x="82" y="56" width="72" height="40" rx="8" fill="#85e8ff"/>
    <rect x="164" y="56" width="72" height="40" rx="8" fill="#85e8ff"/>
    <rect x="41" y="10" width="72" height="40" rx="8" fill="#59cdf1"/>
    <rect x="123" y="10" width="72" height="40" rx="8" fill="#59cdf1"/>
    <path d="M256 86 q58 0 88 40 h48 q-18 -72 -92 -104 q-6 -48 -38 -68 q12 44 -24 74 q-10 -4 -24 -4 q-14 0 -26 4 q-26 -20 -28 -58 q-20 26 -10 58 q-30 20 -30 58z" fill="#6dc7ff"/>
  </g>
  <g stroke="#83fff2" stroke-width="5" opacity="0.7">
    <path d="M120 360 H680"/>
    <path d="M150 332 H650"/>
  </g>
</svg>