<svg xmlns="http://www.w3.org/2000/svg" viewBox="0 0 800 450" role="img" aria-labelledby="title desc">
  <title id="title">Networking project placeholder</title>
  <desc id="desc">Abstract network nodes, low-latency paths, and shield lines.</desc>
  <defs>
    <linearGradient id="bg" x1="0" y1="0" x2="1" y2="1">
      <stop offset="0%" stop-color="#091327"/>
      <stop offset="100%" stop-color="#123c5a"/>
    </linearGradient>
    <linearGradient id="line" x1="0" y1="0" x2="1" y2="0">
      <stop offset="0%" stop-color="#3ee0d0"/>
      <stop offset="100%" stop-color="#61a8ff"/>
    </linearGradient>
  </defs>
  <rect width="800" height="450" fill="url(#bg)" rx="28"/>
  <g opacity="0.12" stroke="#7feaff">
    <path d="M70 370 L200 140 L340 250 L500 90 L710 210" fill="none" stroke-width="20"/>
  </g>
  <g stroke="url(#line)" stroke-width="8" fill="none" stroke-linecap="round">
    <path d="M110 320 L230 150 L390 230 L540 120 L670 190"/>
    <path d="M150 360 L290 280 L430 300 L610 260" opacity="0.7"/>
  </g>
  <g fill="#c9f7ff">
    <circle cx="110" cy="320" r="18"/>
    <circle cx="230" cy="150" r="20"/>
    <circle cx="390" cy="230" r="18"/>
    <circle cx="540" cy="120" r="18"/>
    <circle cx="670" cy="190" r="22"/>
  </g>
  <path d="M620 320 l40 -60 l40 60 v40 h-80z" fill="#6de7d8" opacity="0.85"/>
</svg>