<svg xmlns="http://www.w3.org/2000/svg" viewBox="0 0 800 450" role="img" aria-labelledby="title desc"><title id="title">Security project placeholder light</title><desc id="desc">Firewall shield, segmented lanes, and intrusion detection motif.</desc><defs><linearGradient id="bg" x1="0" y1="0" x2="1" y2="1"><stop offset="0%" stop-color="#f3f7fd"/><stop offset="100%" stop-color="#dbe8f9"/></linearGradient></defs><rect width="800" height="450" rx="28" fill="url(#bg)"/><path d="M400 104 l150 54 v94 c0 82 -58 126 -150 154 c-92 -28 -150 -72 -150 -154 v-94z" fill="#edf4fc" stroke="#4d8bd2" stroke-width="8"/><path d="M400 152 v188" stroke="#4d8bd2" stroke-width="8"/><path d="M312 246 h176" stroke="#4d8bd2" stroke-width="8"/><g opacity="0.82"><rect x="102" y="156" width="118" height="22" rx="11" fill="#4d8bd2"/><rect x="102" y="214" width="172" height="22" rx="11" fill="#4d8bd2"/><rect x="102" y="272" width="136" height="22" rx="11" fill="#4d8bd2"/><rect x="580" y="156" width="118" height="22" rx="11" fill="#1da790"/><rect x="526" y="214" width="172" height="22" rx="11" fill="#1da790"/><rect x="562" y="272" width="136" height="22" rx="11" fill="#1da790"/></g></svg>