<svg xmlns="http://www.w3.org/2000/svg" viewBox="0 0 800 450" role="img" aria-labelledby="title desc"><title id="title">VMware project placeholder light</title><desc id="desc">Cluster cubes and shared storage layers.</desc><defs><linearGradient id="bg" x1="0" y1="0" x2="1" y2="1"><stop offset="0%" stop-color="#f2f7fd"/><stop offset="100%" stop-color="#d8e8fa"/></linearGradient></defs><rect width="800" height="450" rx="28" fill="url(#bg)"/><g transform="translate(130 110)"><g fill="#4d94d2" opacity="0.92"><path d="M120 0 l90 40 l-90 40 l-90 -40z"/><path d="M30 40 l90 40 v92 l-90 -40z" fill="#2ca0be"/><path d="M210 40 l-90 40 v92 l90 -40z" fill="#556fcb"/></g><g transform="translate(220 60)"><path d="M120 0 l90 40 l-90 40 l-90 -40z" fill="#64a7de"/><path d="M30 40 l90 40 v92 l-90 -40z" fill="#36adc8"/><path d="M210 40 l-90 40 v92 l90 -40z" fill="#697bd7"/></g></g><rect x="180" y="338" width="440" height="30" rx="15" fill="#eaf2fb" stroke="#4689d0"/><rect x="210" y="348" width="380" height="10" rx="5" fill="#19a88f" opacity="0.8"/></svg>