<svg xmlns="http://www.w3.org/2000/svg" viewBox="0 0 800 450" role="img" aria-labelledby="title desc">
  <title id="title">VMware project placeholder</title>
  <desc id="desc">Cluster cubes and shared storage layers.</desc>
  <defs>
    <linearGradient id="bg" x1="0" y1="0" x2="1" y2="1">
      <stop offset="0%" stop-color="#0f162d"/>
      <stop offset="100%" stop-color="#244b6e"/>
    </linearGradient>
  </defs>
  <rect width="800" height="450" rx="28" fill="url(#bg)"/>
  <g transform="translate(130 110)">
    <g fill="#7cefff" opacity="0.9">
      <path d="M120 0 l90 40 l-90 40 l-90 -40z"/>
      <path d="M30 40 l90 40 v92 l-90 -40z" fill="#37b7d1"/>
      <path d="M210 40 l-90 40 v92 l90 -40z" fill="#6e8fff"/>
    </g>
    <g transform="translate(220 60)">
      <path d="M120 0 l90 40 l-90 40 l-90 -40z" fill="#a0f5ff"/>
      <path d="M30 40 l90 40 v92 l-90 -40z" fill="#4cc6db"/>
      <path d="M210 40 l-90 40 v92 l90 -40z" fill="#7f93ff"/>
    </g>
  </g>
  <rect x="180" y="338" width="440" height="30" rx="15" fill="#10243b" stroke="#67c6ff"/>
  <rect x="210" y="348" width="380" height="10" rx="5" fill="#71f0db" opacity="0.8"/>
</svg>